<svg width="333" height="318" viewBox="0 0 333 318" fill="none" xmlns="http://www.w3.org/2000/svg">
<path d="M199.528 27.8725C200.958 28.3017 202.307 29.0118 203.448 29.9748C209.684 35.2389 211.358 42.7295 212.923 50.8674C214.024 57.1376 214.936 63.4374 215.628 69.7657C216.205 75.0363 220.119 79.3179 224.125 75.8449C227.07 73.7013 229.997 71.5346 232.916 69.3552C239.855 64.3179 246.489 60.1207 254.96 59.4236C256.344 59.3097 257.735 59.454 259.095 59.7357C261.722 60.2798 263.971 60.8472 266.15 61.8752C269.479 63.4457 271.71 66.7918 271.907 70.467C272.061 73.3422 271.551 76.0714 270.585 79.056C270.209 80.2172 269.681 81.3253 269.024 82.3539C262.525 92.5292 252.947 100.033 243.995 107.987C243.135 108.79 242.274 109.593 241.415 110.398C240.216 111.521 240.788 113.527 242.399 113.852C247.181 114.826 251.958 115.819 256.734 116.823C258.786 117.251 260.839 117.672 262.893 118.085C280.132 121.561 298.067 125.563 309.682 139.694C310.744 140.986 311.573 142.463 312.087 144.055C314.067 150.188 313.731 155.296 311.731 161.548C311.441 162.454 311.076 163.338 310.576 164.146C308.261 167.889 305.223 169.623 301.183 171.818C300.371 172.352 299.559 172.887 298.736 173.428C297.882 173.99 296.988 174.492 296.047 174.893C277.36 182.864 256.193 180.798 236.502 178.028C234.939 177.808 233.793 179.466 234.555 180.848C236.842 185.027 239.103 189.218 241.342 193.424C242.671 195.918 244.012 198.405 245.355 200.891C253.482 216.611 263.988 238.661 258.548 256.866C257.544 259.393 256.644 261.073 255.398 262.754C253.531 265.272 250.791 267.11 247.686 267.54C242.743 268.225 237.947 267.158 232.931 265.534C217.825 258.32 206.426 245.672 197.208 231.866C195.883 229.914 195.883 229.914 194.532 227.923C193.772 226.798 192.033 227.142 191.759 228.472C191.642 229.036 191.525 229.605 191.406 230.179C186.596 252.458 180.976 274.905 161.821 288.599C160.784 289.34 159.65 289.947 158.459 290.399C152.009 292.849 147.072 293.249 140.421 291.248C139.416 290.945 138.445 290.533 137.548 289.988C131.256 286.165 127.37 280.133 124.685 273.165C120.778 258.497 122.621 244.113 124.756 229.291C125.603 224.236 125.755 223.331 125.346 219.802C125.216 218.678 123.841 218.21 123.041 219.01C91.9388 250.031 90.9098 251.058 73.5029 254.115C72.2768 254.33 71.0274 254.433 69.7828 254.406C68.7602 254.383 68.0155 254.349 67.3771 254.272C64.3313 253.904 61.7467 251.742 60.1222 249.14C59.0354 247.399 58.4069 245.692 57.9539 243.332C57.6823 241.917 57.6554 240.46 57.8272 239.029C61.3782 209.454 87.607 189.134 108.027 170.032C111.772 166.522 115.387 162.934 118.921 159.226C119.525 158.592 118.966 157.56 118.127 157.808C118.028 157.837 117.859 157.868 117.756 157.861C101.964 156.742 86.3109 153.905 70.7544 151.078C66.9929 150.401 63.2266 149.755 59.4596 149.109C57.023 148.67 54.5867 148.23 52.1509 147.787C51.0465 147.602 49.9421 147.418 48.8042 147.228C42.6076 146.06 36.8142 144.201 31.4898 141.062C28.5162 139.308 26.2054 136.479 25.6385 133.074C25.037 129.461 25.504 126.082 26.532 122.367C27.2574 119.745 28.6291 117.3 30.7716 115.623C43.2329 105.872 66.0198 106.842 80.681 106.043C90.735 105.74 100.594 107.101 110.526 108.445C111.799 108.614 113.072 108.783 114.384 108.956C114.523 108.975 114.663 108.993 114.802 109.012C119.78 109.673 123.905 106.191 121.448 101.813C120.536 100.161 120.536 100.161 119.605 98.4769C118.947 97.2969 118.288 96.1169 117.61 94.9012C111.132 83.0801 105.319 71.1711 100.208 58.669C99.6287 57.2804 99.0498 55.8919 98.4533 54.4613C96.8104 49.2104 96.928 44.2793 97.7902 39.0805C98.1839 36.7064 99.0674 34.408 100.579 32.5358C101.857 30.9543 103.086 29.9014 104.715 28.9358C107.46 27.308 110.744 26.8491 113.912 27.2369C125.493 28.6551 133.316 32.5867 141.678 41.92C148.486 49.9105 154.92 58.2122 161.248 66.5979C161.942 67.5174 163.372 67.341 163.82 66.2798C165.374 62.6292 166.957 58.9923 168.541 55.3549C169.325 53.4926 169.325 53.4926 170.126 51.5927C175.991 38.2401 183.736 23.1328 199.528 27.8725Z" fill="#EAD0BA" fill-opacity="0.3"/>
</svg>
