<svg width="387" height="97" viewBox="0 0 387 97" fill="none" xmlns="http://www.w3.org/2000/svg">
<path d="M43.32 96.48C24.96 96.48 0 86.64 0 52.2C0 25.08 13.8 8.28 44.76 8.28C62.28 8.28 74.16 14.64 86.52 10.2V39.84C71.76 39.84 66.96 13.08 48.96 13.08C32.16 13.08 24 33.48 24 52.2C24 75 34.08 89.76 51.72 89.76C55.44 89.76 59.4 89.16 63.6 87.84V68.04C63.6 62.4 62.28 56.28 56.16 53.16V50.4H86.52V92.76C69.84 90.36 62.28 96.48 43.32 96.48Z" fill="#1E2620"/>
<path d="M119.241 94.44H95.2406V10.2H119.241V94.44Z" fill="#1E2620"/>
<path d="M151.584 94.44H127.584V25.08H151.584V94.44Z" fill="#1E2620"/>
<path d="M183.928 94.44H159.928V25.08H183.928V45.6C192.448 30.72 205.888 22.8 216.808 22.8C226.888 22.8 234.808 29.4 234.808 43.56C243.088 30 256.168 22.8 266.728 22.8C276.688 22.8 284.488 29.04 284.488 42.12V94.44H260.488V41.16C260.488 35.64 258.088 33.12 254.608 33.12C248.968 33.12 240.448 39.84 234.808 50.88V94.44H210.808V41.16C210.808 36 208.528 33.72 205.288 33.72C199.408 33.72 190.288 40.92 183.928 52.8V94.44Z" fill="#1E2620"/>
<path d="M318.301 96.48C302.461 96.48 292.861 90 292.861 76.08V35.52C292.861 31.2 290.341 29.16 285.661 27.84V25.08C303.181 25.08 313.861 6.48 313.861 0H316.741L316.861 25.08H333.661V29.88H316.861V79.92C316.861 88.8 319.621 92.04 323.581 92.04C331.741 92.04 331.621 70.44 346.021 70.44V94.44C335.101 91.32 330.061 96.48 318.301 96.48Z" fill="#1E2620"/>
<path d="M371.219 69.2326C372.085 68.0227 374.018 68.779 374.597 70.1494C374.652 70.2794 374.705 70.4124 374.758 70.5474C374.988 71.1653 375.2 71.7898 375.39 72.4212C375.549 72.9492 376.031 73.3138 376.376 72.8839C376.637 72.61 376.896 72.3342 377.154 72.0572C377.721 71.4641 378.275 70.9486 379.026 70.6911C379.293 70.5997 379.599 70.5775 379.88 70.5931C380.63 70.6349 381.244 71.248 381.223 71.9988C381.222 72.0376 381.22 72.0767 381.217 72.1163C381.198 72.3912 381.122 72.6594 381.008 72.9103C380.523 73.9772 379.738 74.8676 379.017 75.7881C378.944 75.8858 378.871 75.9836 378.799 76.0815C378.697 76.2187 378.793 76.4132 378.964 76.4161C379.472 76.4257 379.98 76.4372 380.488 76.45C380.706 76.4551 380.925 76.4594 381.143 76.463C382.584 76.4872 384.075 76.5366 385.355 77.1524C386.216 77.5669 386.938 78.3373 386.995 79.2915C387.027 79.8356 386.91 80.4297 386.533 80.8233C386.402 80.9594 386.25 81.0841 386.078 81.2228C386.026 81.2718 385.975 81.3207 385.923 81.37C385.803 81.4852 385.674 81.5925 385.533 81.6824C383.782 82.8019 381.609 82.9843 379.569 83.0703C379.406 83.0772 379.32 83.268 379.424 83.3943C379.737 83.7775 380.048 84.1624 380.356 84.5493C380.539 84.7786 380.724 85.0069 380.908 85.2352C382.037 86.6855 383.529 88.7366 383.315 90.6948C383.162 91.4619 382.504 92.0701 381.723 92.1084C381.442 92.1221 381.153 92.0988 380.855 92.0596C379.171 91.6076 377.765 90.532 376.561 89.2973C376.389 89.1232 376.389 89.1232 376.213 88.9455C376.113 88.8449 375.942 88.9131 375.939 89.0544C375.938 89.1139 375.936 89.1738 375.935 89.2343C375.873 91.2457 375.754 93.2806 374.667 94.9247C374.207 95.6211 373.552 96.2298 372.733 96.3933C372.061 96.5275 371.335 96.3425 370.8 95.9143C370.449 95.6336 370.161 95.2738 369.912 94.8698C369.236 93.4476 369.153 91.9463 369.092 90.3949C369.084 89.8638 369.082 89.7685 368.974 89.4166C368.939 89.3041 368.79 89.282 368.723 89.3789C366.157 93.0757 366.039 93.2458 364.379 93.8629C364.213 93.9247 363.965 93.9871 363.789 94.0092C363.355 94.0638 362.99 93.8469 362.733 93.4927C362.683 93.4244 362.639 93.3519 362.599 93.2708C362.471 93.0134 362.42 92.7241 362.412 92.4365C362.331 89.4466 364.569 86.9453 366.261 84.6669C366.579 84.2389 366.881 83.8054 367.173 83.3612C367.223 83.2851 367.147 83.1898 367.065 83.2309C367.056 83.2358 367.039 83.2421 367.029 83.2433C365.39 83.4256 363.733 83.4302 362.087 83.434C361.689 83.4356 361.291 83.4404 360.893 83.4453C360.635 83.4463 360.377 83.4471 360.119 83.4477C360.003 83.4496 359.886 83.4515 359.766 83.4535C359.324 83.4517 358.895 83.4145 358.478 83.3234C357.726 83.1592 357.053 82.6155 357.005 81.8472C356.967 81.2394 357.208 80.6113 357.683 80.2303C358.873 79.276 360.915 78.9772 362.254 78.6559C363.278 78.4362 364.314 78.3899 365.356 78.3405C365.49 78.3338 365.623 78.3271 365.761 78.3202C365.777 78.3194 365.792 78.3186 365.808 78.3178C366.328 78.2919 366.684 77.8592 366.35 77.4592C366.225 77.3079 366.225 77.3079 366.098 77.1536C366.008 77.0457 365.919 76.9377 365.826 76.8265C364.94 75.7428 364.12 74.6377 363.361 73.4589C363.275 73.3282 363.19 73.1975 363.102 73.0628C362.875 72.6357 362.783 72.2082 362.754 71.7557C362.727 71.3425 362.795 70.8959 363.047 70.5676C363.38 70.1354 363.95 69.9906 364.495 69.9852C365.545 69.9747 366.354 70.2504 367.292 70.9726C368.14 71.6597 368.956 72.3855 369.762 73.1218C369.851 73.2025 369.993 73.1576 370.019 73.0407C370.109 72.6393 370.203 72.2388 370.297 71.8382C370.342 71.6336 370.342 71.6336 370.388 71.4248C370.571 70.6526 370.798 69.8213 371.219 69.2326Z" fill="#1E2620"/>
</svg>
